<?xml version="1.0" encoding="utf-8"?>
<!-- Generator: Adobe Illustrator 16.0.0, SVG Export Plug-In . SVG Version: 6.00 Build 0)  -->
<!DOCTYPE svg PUBLIC "-//W3C//DTD SVG 1.1//EN" "http://www.w3.org/Graphics/SVG/1.1/DTD/svg11.dtd">
<svg version="1.1" id="Layer_1" xmlns="http://www.w3.org/2000/svg" xmlns:xlink="http://www.w3.org/1999/xlink" x="0px" y="0px"
	 width="30px" height="30px" viewBox="0 0 30 30" enable-background="new 0 0 30 30" xml:space="preserve">
<path fill="#FFFFFF" d="M19.102,8c1.439,0.333,2.586,1.561,2.918,2.9c0.115,0.625,0.66,1.1,1.314,1.1c0.732,0,1.332-0.6,1.332-1.333
	c0-0.96-0.807-2.42-1.906-3.513c-1.08-1.067-2.365-1.82-3.426-1.82C18.602,5.334,18,5.954,18,6.688C18,7.34,18.475,7.887,19.102,8z
	 M0.776,25.479c-1.035,1.033-1.035,2.713,0,3.746c1.033,1.033,2.713,1.033,3.738,0l7.66-7.652c1.787,1.113,3.894,1.76,6.16,1.76
	c6.445,0,11.666-5.22,11.666-11.666C30,5.221,24.779,0,18.334,0C11.888,0,6.668,5.221,6.668,11.666c0,2.26,0.646,4.374,1.76,6.16
	L0.776,25.479z M10.001,11.666c0-4.6,3.733-8.333,8.333-8.333c4.6,0,8.332,3.733,8.332,8.333c0,4.602-3.732,8.333-8.332,8.333
	C13.735,19.999,10.001,16.268,10.001,11.666z"/>
</svg>
